<svg width="47" height="46" viewBox="0 0 47 46" fill="none" xmlns="http://www.w3.org/2000/svg">
<path fill-rule="evenodd" clip-rule="evenodd" d="M23.5 45.8333C36.1569 45.8333 46.4167 35.5735 46.4167 22.9167C46.4167 10.2598 36.1569 0 23.5 0C10.8432 0 0.583374 10.2598 0.583374 22.9167C0.583374 35.5735 10.8432 45.8333 23.5 45.8333ZM35.8086 15.6635C35.9158 15.5531 35.9996 15.4222 36.0551 15.2786C36.1107 15.1351 36.1367 14.9818 36.1316 14.8279C36.1266 14.6741 36.0906 14.5229 36.0258 14.3832C35.9611 14.2436 35.8688 14.1185 35.7546 14.0153C35.6404 13.9121 35.5066 13.8329 35.3611 13.7826C35.2157 13.7323 35.0615 13.7118 34.908 13.7223C34.7544 13.7328 34.6046 13.7742 34.4673 13.8439C34.3301 13.9136 34.2084 14.0103 34.1093 14.1281L20.3834 29.2955L12.8323 22.0871C12.6126 21.8771 12.3185 21.763 12.0146 21.7699C11.7108 21.7767 11.4221 21.904 11.2121 22.1237C11.0021 22.3435 10.888 22.6376 10.8949 22.9414C10.9018 23.2453 11.0291 23.534 11.2488 23.744L19.6523 31.7648L20.5037 32.5783L21.2932 31.7052L35.8074 15.6635H35.8086Z" fill="#0FA2DB"/>
</svg>
