<svg width="90" height="74" viewBox="0 0 90 74" fill="none" xmlns="http://www.w3.org/2000/svg">
<path d="M45 28.6666V56.8708M19.3292 29.2312C10.1563 31.4125 3.33337 39.6604 3.33337 49.5C3.33337 61.0062 12.6605 70.3333 24.1667 70.3333C26.1396 70.3333 28.05 70.0583 29.8605 69.5458L19.3292 29.2312ZM70.1146 29.2312C79.2875 31.4125 86.1084 39.6604 86.1084 49.5C86.1084 61.0062 76.7813 70.3333 65.275 70.3333C63.3021 70.3333 61.3917 70.0583 59.5834 69.5458L70.1146 29.2312ZM70 28.6666C70 14.8604 58.8063 3.66663 45 3.66663C31.1938 3.66663 20 14.8604 20 28.6666H70ZM30.5521 49.7479L45 64.2416L59.8584 49.5L30.5521 49.7479Z" stroke="white" stroke-width="6" stroke-linecap="round" stroke-linejoin="round"/>
</svg>
